<svg xmlns="http://www.w3.org/2000/svg" xmlns:xlink="http://www.w3.org/1999/xlink" id="body_2" preserveAspectRatio="xMinYMin meet" viewBox="0 0 793 1121"><defs><clipPath id="1"><path id="" clip-rule="evenodd" transform="matrix(1 0 0 1 0 0)" d="M0 841L0 -0.9199829L0 -0.9199829L595.32 -0.9199829L595.32 -0.9199829L595.32 841L595.32 841L0 841z" /></clipPath><clipPath id="2"><path id="" clip-rule="evenodd" transform="matrix(1 0 0 1 0 0)" d="M0.00125 841.1213L595.4412 841.1213L595.4412 841.1213L595.4412 -0.9186401L595.4412 -0.9186401L0.00125 -0.9186401z" /></clipPath><clipPath id="3"><path id="" clip-rule="evenodd" transform="matrix(1 0 0 1 0 0)" d="M0.00125 841.1213L595.4412 841.1213L595.4412 841.1213L595.4412 -0.9186401L595.4412 -0.9186401L0.00125 -0.9186401z" /></clipPath><clipPath id="4"><path id="" clip-rule="evenodd" transform="matrix(1 0 0 1 0 0)" d="M0.00125 841.1213L595.4412 841.1213L595.4412 841.1213L595.4412 -0.9186401L595.4412 -0.9186401L0.00125 -0.9186401z" /></clipPath></defs><g transform="matrix(1.333333 0 0 1.333333 0 0)"><g clip-path="url(#1)"><g clip-path="url(#2)"><path id="16" transform="matrix(1 0 0 -1 0 841)" d="M34.68 796.08L560.86 796.08L560.86 796.08L560.86 796.8L560.86 796.8L34.68 796.8z" stroke="none" fill="#000000" fill-rule="evenodd" /></g><g clip-path="url(#3)"><path id="722" transform="matrix(1 0 0 -1 0 841)" d="M34.56 606.7L560.86 606.7L560.86 606.7L560.86 608.86L560.86 608.86L34.56 608.86z" stroke="none" fill="#000000" fill-rule="evenodd" /><path id="723" transform="matrix(1 0 0 -1 0 841)" d="M34.56 588.94L560.86 588.94L560.86 588.94L560.86 589.9L560.86 589.9L34.56 589.9z" stroke="none" fill="#000000" fill-rule="evenodd" /></g><g clip-path="url(#4)"><path id="1454" transform="matrix(1 0 0 -1 0 841)" d="M34.56 383.93L560.86 383.93L560.86 383.93L560.86 386.09L560.86 386.09L34.56 386.09z" stroke="none" fill="#000000" fill-rule="evenodd" /><path id="1455" transform="matrix(1 0 0 -1 0 841)" d="M34.56 366.29L560.86 366.29L560.86 366.29L560.86 367.25L560.86 367.25L34.56 367.25z" stroke="none" fill="#000000" fill-rule="evenodd" /></g></g></g></svg>