<svg xmlns="http://www.w3.org/2000/svg" xmlns:xlink="http://www.w3.org/1999/xlink" id="body_1" preserveAspectRatio="xMinYMin meet" viewBox="0 0 793 1121"><defs><clipPath id="1"><path id="" clip-rule="evenodd" transform="matrix(1 0 0 1 0 0)" d="M0 841L0 -0.9199829L0 -0.9199829L595.32 -0.9199829L595.32 -0.9199829L595.32 841L595.32 841L0 841z" /></clipPath><clipPath id="2"><path id="" clip-rule="evenodd" transform="matrix(1 0 0 1 0 0)" d="M0.00125 841.1213L595.4412 841.1213L595.4412 841.1213L595.4412 -0.9186401L595.4412 -0.9186401L0.00125 -0.9186401z" /></clipPath><clipPath id="3"><path id="" clip-rule="evenodd" transform="matrix(1 0 0 1 0 0)" d="M0.00125 841.1213L595.4412 841.1213L595.4412 841.1213L595.4412 -0.9186401L595.4412 -0.9186401L0.00125 -0.9186401z" /></clipPath><clipPath id="4"><path id="" clip-rule="evenodd" transform="matrix(1 0 0 1 0 0)" d="M0.00125 841.1213L595.4412 841.1213L595.4412 841.1213L595.4412 -0.9186401L595.4412 -0.9186401L0.00125 -0.9186401z" /></clipPath></defs><g transform="matrix(1.333333 0 0 1.333333 0 0)"><g clip-path="url(#1)"><g clip-path="url(#2)"><path id="16" transform="matrix(1 0 0 -1 0 841)" d="M34.68 796.08L560.86 796.08L560.86 796.08L560.86 796.8L560.86 796.8L34.68 796.8z" stroke="none" fill="#000000" fill-rule="evenodd" /></g><g clip-path="url(#3)"><path id="89" transform="matrix(1 0 0 -1 0 841)" d="M34.56 747.1L560.86 747.1L560.86 747.1L560.86 749.2599L560.86 749.2599L34.56 749.2599z" stroke="none" fill="#000000" fill-rule="evenodd" /><path id="90" transform="matrix(1 0 0 -1 0 841)" d="M34.56 729.34L560.86 729.34L560.86 729.34L560.86 730.3L560.86 730.3L34.56 730.3z" stroke="none" fill="#000000" fill-rule="evenodd" /></g><g clip-path="url(#4)"><path id="553" transform="matrix(1 0 0 -1 0 841)" d="M34.56 586.78L560.86 586.78L560.86 586.78L560.86 588.94L560.86 588.94L34.56 588.94z" stroke="none" fill="#000000" fill-rule="evenodd" /><path id="554" transform="matrix(1 0 0 -1 0 841)" d="M34.56 569.11L560.86 569.11L560.86 569.11L560.86 570.07L560.86 570.07L34.56 570.07z" stroke="none" fill="#000000" fill-rule="evenodd" /></g></g></g></svg>